<svg width="1024" height="1024" viewBox="0 0 1024 1024" fill="none" xmlns="http://www.w3.org/2000/svg">
  <defs>
    <linearGradient id="bg" x1="86" y1="72" x2="940" y2="960" gradientUnits="userSpaceOnUse">
      <stop stop-color="#111632"/><stop offset="0.56" stop-color="#29245A"/><stop offset="1" stop-color="#572668"/>
    </linearGradient>
    <linearGradient id="route" x1="272" y1="316" x2="752" y2="708" gradientUnits="userSpaceOnUse">
      <stop stop-color="#B6ACFF"/><stop offset="1" stop-color="#F29DFF"/>
    </linearGradient>
  </defs>
  <rect width="1024" height="1024" fill="url(#bg)"/>
  <circle cx="512" cy="512" r="388" fill="#7769FF" fill-opacity=".12"/>
  <circle cx="338" cy="402" r="174" fill="#1A1F46" stroke="#998DFF" stroke-width="28"/>
  <circle cx="686" cy="622" r="174" fill="#1A1F46" stroke="#E48DFF" stroke-width="28"/>
  <circle cx="338" cy="365" r="53" fill="#B2A9FF"/>
  <rect x="234" y="435" width="208" height="82" rx="41" fill="#B2A9FF"/>
  <circle cx="686" cy="585" r="53" fill="#F0A0FF"/>
  <rect x="582" y="655" width="208" height="82" rx="41" fill="#F0A0FF"/>
  <path d="M468 314C616 272 756 352 782 478" stroke="url(#route)" stroke-width="45" stroke-linecap="round"/>
  <path d="M744 423L794 500L704 515" fill="#F4F2FF"/>
  <path d="M556 710C408 752 268 672 242 546" stroke="url(#route)" stroke-width="45" stroke-linecap="round"/>
  <path d="M280 601L230 524L320 509" fill="#F4F2FF"/>
  <circle cx="800" cy="274" r="46" fill="#20C987" stroke="#111632" stroke-width="18"/>
</svg>
